<?xml version="1.0" encoding="UTF-8" standalone="no"?>
<svg width="33px" height="19px" viewBox="0 0 33 19" version="1.1" xmlns="http://www.w3.org/2000/svg" xmlns:xlink="http://www.w3.org/1999/xlink">
    <!-- Generator: Sketch 3.7 (28169) - http://www.bohemiancoding.com/sketch -->
    <title>oo</title>
    <desc>Created with Sketch.</desc>
    <defs></defs>
    <g id="Symbols" stroke="none" stroke-width="1" fill="none" fill-rule="evenodd">
        <g id="Bar-/-Navigation" transform="translate(-169.000000, -32.000000)" fill="#FFFFFF">
            <path d="M176.02,46.14 C179.881,46.14 183.04,42.981 183.04,39.12 C183.04,35.259 179.881,32.1 176.02,32.1 C172.159,32.1 169,35.259 169,39.12 C169,42.981 172.159,46.14 176.02,46.14 L176.02,46.14 Z M176.02,35.232 C178.18,35.232 179.908,36.96 179.908,39.12 C179.908,41.28 178.18,43.008 176.02,43.008 C173.86,43.008 172.132,41.28 172.132,39.12 C172.132,36.96 173.86,35.232 176.02,35.232 L176.02,35.232 Z M182.176,47.868 L169.702,47.868 L169.702,51 L182.176,51 L182.176,47.868 Z M194.488,46.14 C198.349,46.14 201.508,42.981 201.508,39.12 C201.508,35.259 198.349,32.1 194.488,32.1 C190.627,32.1 187.468,35.259 187.468,39.12 C187.468,42.981 190.627,46.14 194.488,46.14 L194.488,46.14 Z M194.488,35.232 C196.648,35.232 198.376,36.96 198.376,39.12 C198.376,41.28 196.648,43.008 194.488,43.008 C192.328,43.008 190.6,41.28 190.6,39.12 C190.6,36.96 192.328,35.232 194.488,35.232 L194.488,35.232 Z M200.644,47.868 L188.17,47.868 L188.17,51 L200.644,51 L200.644,47.868 Z" id="oo"></path>
        </g>
    </g>
</svg>