<?xml version="1.0" encoding="UTF-8" standalone="no"?>
<svg width="57px" height="57px" viewBox="0 0 57 57" version="1.1" xmlns="http://www.w3.org/2000/svg" xmlns:xlink="http://www.w3.org/1999/xlink">
    <!-- Generator: Sketch 3.7 (28169) - http://www.bohemiancoding.com/sketch -->
    <title>oo</title>
    <desc>Created with Sketch.</desc>
    <defs></defs>
    <g id="Page-2" stroke="none" stroke-width="1" fill="none" fill-rule="evenodd">
        <g id="Home-Details" transform="translate(-159.000000, -462.000000)" fill="#F0A95F">
            <path d="M178.02,495.04 C181.881,495.04 185.04,491.881 185.04,488.02 C185.04,484.159 181.881,481 178.02,481 C174.159,481 171,484.159 171,488.02 C171,491.881 174.159,495.04 178.02,495.04 L178.02,495.04 Z M178.02,484.132 C180.18,484.132 181.908,485.86 181.908,488.02 C181.908,490.18 180.18,491.908 178.02,491.908 C175.86,491.908 174.132,490.18 174.132,488.02 C174.132,485.86 175.86,484.132 178.02,484.132 L178.02,484.132 Z M184.176,496.768 L171.702,496.768 L171.702,499.9 L184.176,499.9 L184.176,496.768 Z M196.488,495.04 C200.349,495.04 203.508,491.881 203.508,488.02 C203.508,484.159 200.349,481 196.488,481 C192.627,481 189.468,484.159 189.468,488.02 C189.468,491.881 192.627,495.04 196.488,495.04 L196.488,495.04 Z M196.488,484.132 C198.648,484.132 200.376,485.86 200.376,488.02 C200.376,490.18 198.648,491.908 196.488,491.908 C194.328,491.908 192.6,490.18 192.6,488.02 C192.6,485.86 194.328,484.132 196.488,484.132 L196.488,484.132 Z M202.644,496.768 L190.17,496.768 L190.17,499.9 L202.644,499.9 L202.644,496.768 Z M187.5,519 C203.240115,519 216,506.240115 216,490.5 C216,474.759885 203.240115,462 187.5,462 C171.759885,462 159,474.759885 159,490.5 C159,506.240115 171.759885,519 187.5,519 Z" id="oo"></path>
        </g>
    </g>
</svg>