<?xml version="1.0" encoding="UTF-8" standalone="no"?>
<svg width="105px" height="105px" viewBox="0 0 105 105" version="1.1" xmlns="http://www.w3.org/2000/svg" xmlns:xlink="http://www.w3.org/1999/xlink">
    <!-- Generator: Sketch 3.7 (28169) - http://www.bohemiancoding.com/sketch -->
    <title>noun_38823_cc</title>
    <desc>Created with Sketch.</desc>
    <defs></defs>
    <g id="Page-2" stroke="none" stroke-width="1" fill="none" fill-rule="evenodd">
        <g id="Home-Details" transform="translate(-135.000000, -386.000000)">
            <g id="noun_38823_cc" transform="translate(136.000000, 387.000000)">
                <g id="Group" transform="translate(7.000000, 33.000000)" fill="#FFFFFF">
                    <g id="Shape">
                        <g transform="translate(0.000000, 3.000000)">
                            <g>
                                <path d="M27.509,4.139 C21.119,4.139 15.921,9.338 15.921,15.727 C15.921,18.801 17.125,21.602 19.087,23.678 C18.673,23.613 18.249,23.579 17.815,23.579 C15.896,23.579 15.27,23.983 12.738,25.348 C12.738,25.348 11.466,25.921 10.704,26.09 C9.976,26.251 9.229,26.395 8.447,26.395 C3.782,26.396 0,22.614 0,17.948 C0,15.605 0.954,13.485 2.494,11.955 C4.021,10.438 13.931,3.298 16.106,1.771 C17.479,0.806 19.152,0.241 20.957,0.241 C23.954,0.24 26.586,1.802 28.084,4.154 C27.894,4.144 27.702,4.139 27.509,4.139 Z"></path>
                            </g>
                            <g transform="translate(50.000000, 0.000000)">
                                <path d="M10,3.914 C10.19,3.904 10.382,3.899 10.575,3.899 C16.965,3.899 22.163,9.098 22.163,15.487 C22.163,18.561 20.959,21.362 18.997,23.438 C19.411,23.373 19.835,23.339 20.269,23.339 C22.188,23.339 22.814,23.743 25.346,25.108 C25.346,25.108 26.618,25.681 27.38,25.85 C28.108,26.011 28.855,26.155 29.637,26.155 C34.303,26.155 38.085,22.373 38.085,17.707 C38.085,15.364 37.131,13.244 35.591,11.714 C34.064,10.197 24.154,3.057 21.979,1.53 C20.606,0.565 18.933,0 17.128,0 C14.13,0 11.498,1.562 10,3.914 L10,3.914 Z"></path>
                            </g>
                        </g>
                        <path d="M44,0.604 C39.523,0.604 35.806,3.844 35.058,8.105 C37.241,9.355 38.854,11.484 39.416,14.01 C40.761,13.223 42.327,12.771 43.999,12.771 C45.67,12.771 47.236,13.223 48.582,14.01 C49.144,11.483 50.757,9.354 52.94,8.104 C52.193,3.844 48.476,0.604 44,0.604 L44,0.604 Z M44.001,11.579 C41.189,11.579 38.91,9.3 38.91,6.489 C38.91,3.677 41.189,1.399 44.001,1.399 C46.812,1.399 49.091,3.677 49.091,6.489 C49.091,9.3 46.811,11.579 44.001,11.579 L44.001,11.579 Z"></path>
                        <path d="M44.001,3.349 C42.266,3.349 40.859,4.754 40.859,6.489 C40.859,8.224 42.266,9.629 44.001,9.629 C45.736,9.629 47.141,8.224 47.141,6.489 C47.141,4.754 45.736,3.349 44.001,3.349 L44.001,3.349 Z M42.483,6.489 C42.483,5.651 43.162,4.973 44,4.973 C44.33,4.973 44.635,5.08 44.884,5.259 L42.77,7.373 C42.591,7.125 42.483,6.82 42.483,6.489 L42.483,6.489 Z M44.001,8.005 C43.67,8.005 43.365,7.898 43.115,7.718 L45.229,5.604 C45.409,5.853 45.516,6.158 45.516,6.489 C45.516,7.326 44.837,8.005 44.001,8.005 L44.001,8.005 Z"></path>
                    </g>
                </g>
                <path d="M35.4834464,61.9668928 C41.2493419,61.9668928 45.9668928,57.2493419 45.9668928,51.4834464 C45.9668928,45.7175509 41.2493419,41 35.4834464,41 C29.7175509,41 25,45.7175509 25,51.4834464 C25,57.2493419 29.7175509,61.9668928 35.4834464,61.9668928 L35.4834464,61.9668928 Z M35.4834464,45.6772299 C38.7091222,45.6772299 41.2896629,48.2577706 41.2896629,51.4834464 C41.2896629,54.7091222 38.7091222,57.2896629 35.4834464,57.2896629 C32.2577706,57.2896629 29.6772299,54.7091222 29.6772299,51.4834464 C29.6772299,48.2577706 32.2577706,45.6772299 35.4834464,45.6772299 L35.4834464,45.6772299 Z M44.6766225,64.5474334 L26.0483446,64.5474334 L26.0483446,69.2246634 L44.6766225,69.2246634 L44.6766225,64.5474334 Z M66.5165536,61.9668928 C72.2824491,61.9668928 77,57.2493419 77,51.4834464 C77,45.7175509 72.2824491,41 66.5165536,41 C60.7506581,41 56.0331072,45.7175509 56.0331072,51.4834464 C56.0331072,57.2493419 60.7506581,61.9668928 66.5165536,61.9668928 L66.5165536,61.9668928 Z M66.5165536,45.6772299 C69.7422294,45.6772299 72.3227701,48.2577706 72.3227701,51.4834464 C72.3227701,54.7091222 69.7422294,57.2896629 66.5165536,57.2896629 C63.2908778,57.2896629 60.7103371,54.7091222 60.7103371,51.4834464 C60.7103371,48.2577706 63.2908778,45.6772299 66.5165536,45.6772299 L66.5165536,45.6772299 Z M75.7097297,64.5474334 L57.0814519,64.5474334 L57.0814519,69.2246634 L75.7097297,69.2246634 L75.7097297,64.5474334 Z" id="oo" fill="#FFFFFF"></path>
                <circle id="Oval-34" stroke="#FFFFFF" stroke-width="2" cx="51.5" cy="51.5" r="51.5"></circle>
            </g>
        </g>
    </g>
</svg>