<?xml version="1.0" encoding="UTF-8" standalone="no"?>
<svg width="193px" height="89px" viewBox="0 0 193 89" version="1.1" xmlns="http://www.w3.org/2000/svg" xmlns:xlink="http://www.w3.org/1999/xlink">
    <!-- Generator: Sketch 3.7 (28169) - http://www.bohemiancoding.com/sketch -->
    <title>Petro</title>
    <desc>Created with Sketch.</desc>
    <defs></defs>
    <g id="Page-2" stroke="none" stroke-width="1" fill="none" fill-rule="evenodd">
        <g id="Login" transform="translate(-89.000000, -47.000000)" fill="#FFFFFF">
            <path d="M129.39,47.8 L118.626,47.8 L118.626,80.092 L124.008,80.092 L124.008,66.66 L129.39,66.66 C129.39,66.66 140.154,66.66 140.154,57.23 C140.154,47.8 129.39,47.8 129.39,47.8 L129.39,47.8 Z M129.39,61.278 L124.008,61.278 L124.008,53.182 L129.39,53.182 C129.39,53.182 134.772,53.182 134.772,57.23 C134.772,61.278 129.39,61.278 129.39,61.278 L129.39,61.278 Z M169.18,53.182 L169.18,47.8 L147.698,47.8 L147.698,80 L169.18,80 L169.18,74.618 L153.08,74.618 L153.08,66.568 L166.466,66.568 L166.466,61.232 L153.08,61.232 L153.08,53.182 L169.18,53.182 Z M191.766,47.8 L175.666,47.8 L175.666,53.182 L181.048,53.182 L181.048,80 L186.384,80 L186.384,53.182 L191.766,53.182 L191.766,47.8 Z M222.54,80 L213.8,66.016 C216.928,65.142 220.884,62.888 220.884,57.184 C220.884,47.8 210.12,47.8 210.12,47.8 L199.402,47.8 L199.402,53.182 L204.508,61.232 L199.402,61.232 L199.402,80 L204.784,80 L204.784,66.568 L207.866,66.568 L216.238,80 L222.54,80 Z M205.796,53.182 L210.12,53.182 C210.12,53.182 215.502,53.182 215.502,57.184 C215.502,60.358 212.236,61.048 210.81,61.186 L205.796,53.182 Z M238.87,71.72 C245.448,71.72 250.83,66.338 250.83,59.76 C250.83,53.182 245.448,47.8 238.87,47.8 C232.292,47.8 226.91,53.182 226.91,59.76 C226.91,66.338 232.292,71.72 238.87,71.72 L238.87,71.72 Z M238.87,53.136 C242.55,53.136 245.494,56.08 245.494,59.76 C245.494,63.44 242.55,66.384 238.87,66.384 C235.19,66.384 232.246,63.44 232.246,59.76 C232.246,56.08 235.19,53.136 238.87,53.136 L238.87,53.136 Z M249.358,74.664 L228.106,74.664 L228.106,80 L249.358,80 L249.358,74.664 Z M109.127,136 L114.923,136 L102.043,103.8 L89.209,136 L95.005,136 L96.615,131.952 L107.517,131.952 L109.127,136 Z M98.731,126.616 L102.043,118.29 L105.401,126.616 L98.731,126.616 Z M127.849,103.846 L122.467,103.846 L122.467,136 L127.849,136 C127.849,136 146.571,136 146.571,119.9 C146.571,103.846 127.849,103.846 127.849,103.846 L127.849,103.846 Z M127.849,130.618 L127.849,109.182 C127.849,109.182 141.235,109.182 141.235,119.9 C141.235,130.618 127.849,130.618 127.849,130.618 L127.849,130.618 Z M153.057,103.8 L165.937,136 L178.771,103.8 L153.057,103.8 Z M160.969,109.136 L170.859,109.136 L165.937,121.51 L160.969,109.136 Z M186.361,136 L191.743,136 L191.743,103.8 L186.361,103.8 L186.361,136 Z M209.361,136 C214.559,136 219.389,132.366 219.389,126.616 C219.389,122.798 217.549,119.854 214.145,118.29 C211.845,117.232 209.591,117.232 209.361,117.232 C206.969,117.232 204.669,115.852 204.669,113.184 C204.669,110.608 206.831,109.182 209.361,109.182 C211.799,109.182 213.961,110.516 214.053,113.184 L219.389,113.184 C219.297,107.71 214.927,103.8 209.361,103.8 C204.163,103.8 199.287,107.48 199.287,113.184 C199.287,117.002 201.173,119.946 204.531,121.51 C206.877,122.568 209.085,122.568 209.361,122.568 C211.523,122.66 214.053,123.902 214.053,126.616 C214.053,129.146 211.845,130.618 209.361,130.618 C206.969,130.618 204.761,129.284 204.669,126.616 L199.287,126.616 C199.379,132.228 203.795,135.862 209.361,136 L209.361,136 Z M238.893,127.72 C245.471,127.72 250.853,122.338 250.853,115.76 C250.853,109.182 245.471,103.8 238.893,103.8 C232.315,103.8 226.933,109.182 226.933,115.76 C226.933,122.338 232.315,127.72 238.893,127.72 L238.893,127.72 Z M238.893,109.136 C242.573,109.136 245.517,112.08 245.517,115.76 C245.517,119.44 242.573,122.384 238.893,122.384 C235.213,122.384 232.269,119.44 232.269,115.76 C232.269,112.08 235.213,109.136 238.893,109.136 L238.893,109.136 Z M249.381,130.664 L228.129,130.664 L228.129,136 L249.381,136 L249.381,130.664 Z M281.535,136 L272.795,122.016 C275.923,121.142 279.879,118.888 279.879,113.184 C279.879,103.8 269.115,103.8 269.115,103.8 L258.397,103.8 L258.397,109.182 L263.503,117.232 L258.397,117.232 L258.397,136 L263.779,136 L263.779,122.568 L266.861,122.568 L275.233,136 L281.535,136 Z M264.791,109.182 L269.115,109.182 C269.115,109.182 274.497,109.182 274.497,113.184 C274.497,116.358 271.231,117.048 269.805,117.186 L264.791,109.182 Z" id="Petro"></path>
        </g>
    </g>
</svg>